
<?xml version="1.0" encoding="utf-8" ?><svg xmlns="http://www.w3.org/2000/svg" xmlns:xlink="http://www.w3.org/1999/xlink" width="908" height="294" viewBox="0 0 908 294"><path fill="#EEA0AF" transform="scale(0.287069 0.287109)" d="M741.139 257.274C754.648 182.8 640.853 159.939 628.068 245.081C550.681 255.517 288.829 324.384 242.139 384.184C227.138 403.395 218.18 427.805 221.303 452.178C224.326 475.792 238.377 498.457 257.886 512.467C276.412 525.866 299.764 531.116 322.378 526.967C330.99 525.477 338.338 522.91 346.483 520.045C367.904 544.838 388.737 570.111 408.97 595.851C393.869 614.637 385.642 638.943 409.976 654.881C420.447 661.677 433.299 663.957 445.527 661.18C468.911 655.853 480.921 635.313 474.797 612.796C469.71 594.091 446.969 588.14 430.359 584.801C411.81 558.22 380.407 524.239 365.849 500.666C412.456 515.153 469.757 539.125 516.658 556.431C500.168 588.403 504.07 620.42 526.572 648.618C529.591 645.227 540.577 633.115 541.794 629.881C555.485 593.414 550.142 580.583 593.894 569.354C622.547 577.174 630.291 586.93 634.507 615.405C655.4 592.79 659.814 583.483 672.388 555.6C647.07 510.506 604.138 497.556 555.41 512.165C531.951 489.413 521.14 472.871 500.447 450.835C507.331 438.578 509.341 435.099 512.193 420.932C506.125 396.055 490.011 378.581 462.13 387.575C450.587 391.314 441.133 399.583 436.015 410.415C420.072 444.547 447.607 458.669 477.387 462.084C493.226 480.961 524.349 514.36 536.315 532.711C493.569 522.195 426.714 497.559 385.538 479.103C396.881 453.738 399.757 434.83 389.218 407.813C387.206 402.693 385.039 397.629 382.723 392.632C455.916 326.583 539.778 295.078 634.278 271.165C652.583 299.633 681.307 319.166 714.178 297.785C728.358 288.404 738.079 273.798 741.139 257.274Z"/><path fill="#EEA0AF" transform="scale(0.287069 0.287109)" d="M940.195 384.498C933.262 384.525 926.328 384.552 919.393 384.574C918.131 453.196 918.39 525.482 918.639 595.156C918.674 605.093 918.71 614.977 918.74 624.789C939.59 624.26 960.448 624.239 981.295 624.726C986.603 624.851 992.005 625.051 997.46 625.254C1042.07 626.91 1090.24 628.698 1120.11 590.142C1137.02 548.253 1125.8 520.445 1085.82 499.481C1104.07 482.266 1119.73 463.694 1114.48 436.986C1107 399.001 1073.01 384.956 1037.07 384.581C1004.77 384.246 972.486 384.372 940.195 384.498ZM982.408 481.325C978.111 481.215 974.062 481.112 970.394 481.081C970.831 469.554 970.825 457.191 970.819 445.118C970.816 440.018 970.814 434.969 970.844 430.057C973.338 430.013 976.427 429.893 979.947 429.757C1013.69 428.454 1087.01 425.622 1054.49 472.296C1038.09 482.744 1006.38 481.936 982.408 481.325ZM995.388 579.187C987.267 579.038 979.373 578.893 972.069 579.127C971.53 560.45 971.341 541.766 971.498 523.082C975.873 523.092 980.347 523.064 984.879 523.036C1003.69 522.918 1023.5 522.795 1041.4 525.315C1069.04 529.204 1088.24 546.1 1064.18 570.816C1045.61 580.108 1019.5 579.629 995.388 579.187Z"/><path fill="#E11D48" transform="scale(0.287069 0.287109)" d="M563.586 717.569C630.266 688.129 713.753 640.416 672.388 555.6C659.814 583.483 655.4 592.79 634.507 615.405C630.291 586.93 622.547 577.174 593.894 569.354C550.142 580.583 555.485 593.414 541.794 629.881C540.577 633.115 529.591 645.227 526.572 648.618C518.935 659.244 500.379 674.421 489.872 682.115C425.669 729.148 346.797 752.237 269.327 768.382C240.914 717.586 178.535 726.367 162.853 774.561C158.238 789.048 159.912 804.758 167.482 817.99C176.522 833.675 191.334 842.621 208.547 847.071C247.207 857.069 265.941 827.233 273.946 795.83C310.229 791.324 350.359 781.501 385.891 772.966C446.201 758.325 506.76 742.66 563.586 717.569Z"/><path fill="#EEA0AF" transform="scale(0.287069 0.287109)" d="M1824.62 627.907C1927.05 606.21 1916.09 428.594 1797.45 439.118C1775.93 443.656 1768.25 450.256 1753.71 465.475L1754.07 441.096C1734.87 441.819 1719.5 441.857 1700.39 441.412C1702.65 463.101 1702.32 488.789 1701.9 510.871C1701.4 536.844 1701.66 563.067 1701.93 589.297C1702.24 620.461 1702.55 651.635 1701.6 682.417C1704.83 682.373 1709.02 682.265 1713.67 682.146C1727.44 681.793 1745.23 681.337 1753.91 682.108L1753.95 638.424L1753.75 603.713C1772.34 617.688 1801.4 632.823 1824.62 627.907ZM1791.81 482.894C1849.83 480.579 1864.34 563.112 1803.51 582.796C1784.17 582.459 1767.07 574.604 1758.3 556.877C1752.11 544.102 1751.46 529.401 1756.49 516.142C1763.35 497.934 1774.94 490.216 1791.81 482.894Z"/><path fill="#EEA0AF" transform="scale(0.287069 0.287109)" d="M3088.64 454.534C3061.71 426.659 3009.76 436.397 2983.67 466.229C2964.51 443.453 2951.19 436.187 2919.96 440.02C2897 444.652 2892.38 450.551 2877.29 467.418C2877.43 458.83 2877.44 450.2 2878.04 441.636C2860.02 442.096 2841.98 442.067 2823.96 441.556C2823.9 448.367 2823.83 455.335 2823.76 462.422C2823.24 515.182 2822.66 574.524 2824.42 624.604C2829.26 624.608 2834.22 624.583 2839.22 624.558C2852.07 624.494 2865.24 624.428 2877.57 624.842C2877.46 623.368 2877.33 621.721 2877.2 619.92C2874.44 583.931 2866.98 486.53 2907.84 483.557C2945.17 480.839 2941.58 560.177 2939.61 603.573C2939.21 612.368 2938.88 619.687 2938.97 624.547L2941.38 624.4C2945.43 624.18 2951.13 624.363 2957.27 624.561C2970.5 624.986 2985.76 625.476 2991.01 622.145C2991.25 620.031 2991.65 617.145 2991.77 615.075C2991.7 612.131 2991.54 608.297 2991.36 603.807C2990 571.084 2987.21 503.509 3005.34 491.615C3065.16 452.382 3056.98 575.723 3054.26 616.836C3054.06 619.877 3053.89 622.467 3053.77 624.509C3067.93 623.631 3082.91 623.988 3097.42 624.333C3100.53 624.407 3103.62 624.48 3106.67 624.541C3106.81 618.283 3107.2 610.473 3107.65 601.641C3110.02 555.237 3113.82 480.61 3088.64 454.534Z"/><path fill="#EEA0AF" transform="scale(0.287069 0.287109)" d="M1450.12 521.903C1443.76 468.053 1394 429.58 1339.23 436.166C1284.93 442.692 1246.18 491.075 1252.49 544.47C1258.81 597.864 1307.82 636.229 1362.2 630.348C1417.05 624.414 1456.49 575.757 1450.12 521.903ZM1395.84 552.244C1388.54 569.312 1377.88 575.277 1362.01 581.978C1338.89 584.521 1317.21 574.916 1307.75 553.226C1302.24 540.588 1302.26 526.283 1307.79 513.655C1315.19 496.623 1326.38 489.76 1342.5 482.953C1349.93 482.834 1359.71 484.139 1366.59 486.706C1379.62 491.475 1390.11 501.238 1395.67 513.757C1401.05 526.031 1401.11 539.928 1395.84 552.244Z"/><path fill="#EEA0AF" transform="scale(0.287069 0.287109)" d="M1660.51 412.056C1625.93 385.289 1595.97 379.099 1552.71 381.649C1530.77 386.415 1504.77 394.533 1493.7 414.343C1460 474.653 1498.87 515.191 1559.25 525.803C1577.42 528.998 1622.16 542.807 1613.13 566.896C1581.96 601.003 1533.46 572.885 1504.7 551.704L1472.92 588.561C1508.17 618.169 1527.4 623.58 1572.83 627.637C1625.69 627.058 1664.78 612.281 1667.4 552.746C1669.46 506.055 1625.7 492.396 1587.67 480.525C1562.92 472.797 1540.59 465.828 1534.91 450.996C1535.1 443.961 1537.49 439.353 1542.83 434.872C1567.99 413.747 1611.73 437.007 1632.97 450.996C1639.93 438.519 1651.19 423.099 1660.51 412.056Z"/><path fill="#EEA0AF" transform="scale(0.287069 0.287109)" d="M2103.67 551.364C2097.15 492.797 2087.17 433.325 2008.21 437.961C1948.76 444.168 1911.19 488.242 1919.76 546.935C1923.32 573.096 1937.7 596.654 1959.49 612.07C2004.72 643.61 2056.47 628.012 2095.28 595.602C2091.92 592.66 2081.96 583.469 2078.9 581.309L2061.45 568.021C2024.21 594.866 1991.7 595.96 1969.58 551.108C1983.6 551.126 1997.78 551.082 2012.02 551.039C2042.67 550.944 2073.57 550.849 2103.67 551.364ZM1986.91 518.004C1981.11 518.044 1975.46 518.082 1970.26 518.067C1978.17 497.121 1978.86 491.531 1999.27 481.512C2033.74 476.178 2041.99 491.783 2052.3 519.95L2022.88 518.232C2012.11 517.832 1999.17 517.921 1986.91 518.004Z"/><path fill="#EEA0AF" transform="scale(0.287069 0.287109)" d="M565.738 121.799C559.789 115.109 553.665 108.572 547.376 102.19C522.271 130.952 481.221 163.11 446.937 180.703C398.362 141.992 361.89 167.146 352.408 222.606C262.275 269.783 191.137 312.44 148.349 408.111C125.448 417.401 109.182 429.997 120.114 457.042C123.611 465.816 130.811 472.664 139.848 475.814C150.294 479.548 161.832 478.987 171.851 474.256C200.842 460.44 191.623 432.953 173.86 414.017C203.201 348.023 247.827 311.423 309.119 274.416C323.884 265.501 347.079 251.597 362.711 245C372.155 257.407 383.329 266.651 399.507 268.92C413.398 270.765 427.457 266.999 438.471 258.481C457.9 243.507 461.413 224.587 460.071 202.007C501.982 178.988 531.694 154.928 565.738 121.799ZM436.84 212.254C439.017 228.336 427.424 243.075 411.039 245.064C394.865 247.024 380.103 235.82 377.954 219.944C375.806 204.073 387.077 189.467 403.209 187.208C419.555 184.918 434.662 196.172 436.84 212.254Z"/><path fill="#EEA0AF" transform="scale(0.287069 0.287109)" d="M712.865 588.08C714.917 604.836 718.471 609.353 730.763 620.756C684.841 708.619 618.407 749.035 533.675 792.983C529.944 789.048 526.162 785.096 521.825 781.796C510.398 773.25 495.907 769.662 481.717 771.872C467.826 774.077 455.381 781.578 447.083 792.748C437.211 806.165 435.751 818.656 438.696 834.233C402.988 851.658 369.353 875.718 337.289 898.702C345.412 905.838 352.083 912.08 359.763 919.68C389.614 887.898 412.902 880.274 447.536 857.648C460.103 869.648 472.098 877.055 490.422 877.058C505.001 877.104 518.92 871.093 528.745 860.51C541.508 846.707 543.532 832.767 542.64 815.068C635.345 775.61 710.737 717.148 753.44 625.677C780.419 613.368 799.688 591.692 774.251 562.712C755.661 541.531 709.024 556.761 712.865 588.08ZM519.413 821.454C521.143 837.403 509.363 851.704 493.123 853.356C476.963 854.997 462.49 843.484 460.767 827.609C459.039 811.733 470.71 797.478 486.859 795.732C503.088 793.975 517.678 805.505 519.413 821.454Z"/><path fill="#EEA0AF" transform="scale(0.287069 0.287109)" d="M2657.3 441.988C2642.49 442.106 2627.79 442.223 2612.96 441.398C2610.92 456.821 2611.37 473.769 2611.82 490.664C2612.02 497.994 2612.21 505.314 2612.2 512.495C2612.2 517.125 2612.12 521.863 2612.04 526.652C2611.31 571.234 2610.5 620.252 2667.93 627.991C2690.52 631.035 2705.04 620.495 2715.7 612.761C2721.24 608.742 2725.74 605.48 2729.78 605.277C2729.78 607.261 2729.67 609.05 2729.57 610.7C2729.28 615.503 2729.06 619.136 2731.78 623.011C2741.29 623.594 2750.69 623.555 2760.09 623.517C2767.89 623.485 2775.69 623.453 2783.57 623.776L2783.53 503.412L2783.57 442.12C2765.81 442.103 2748.07 441.983 2730.33 441.752C2730.43 445.395 2730.61 449.703 2730.8 454.503C2732.29 492.062 2734.98 559.657 2717.13 572.798C2654.12 619.175 2661.65 483.283 2663.57 448.618C2663.74 445.509 2663.87 443.215 2663.9 441.938C2661.69 441.953 2659.49 441.97 2657.3 441.988Z"/><path fill="#EEA0AF" transform="scale(0.287069 0.287109)" d="M2302.2 471.037C2274.99 446.756 2256.69 435.236 2218.8 437.863C2202.16 440.349 2190.82 442.281 2175.61 449.958C2138.81 468.53 2121.28 512.965 2128.08 552.006C2132.57 576.543 2146.86 598.303 2167.76 612.431C2189.63 627.279 2216.8 632.567 2242.78 627.034C2265.96 622.279 2286.06 609.166 2303.19 593.561L2281.83 573.408C2275.17 567.558 2276.18 566.619 2268.67 565.026C2265.97 566.506 2262.98 568.326 2259.8 570.26C2245.88 578.738 2228.37 589.399 2215.22 583.093C2162.41 557.782 2167.98 497.706 2224.36 481.326C2244.95 484.609 2252.5 487.922 2268.16 502.718C2279 492.11 2290.38 480.418 2302.2 471.037Z"/><path fill="#EEA0AF" transform="scale(0.287069 0.287109)" d="M2394.63 393.148L2341.18 393.372L2341.22 442.769L2317.98 442.751C2317.74 456.936 2317.38 471.118 2316.88 485.299C2318.14 485.374 2319.4 485.452 2320.64 485.53C2327.46 485.953 2334.1 486.365 2340.99 486.229C2340.89 491.604 2340.65 497.632 2340.39 504.094C2338.95 539.551 2336.99 588.092 2354.83 613.589C2365.49 628.829 2421.55 635.864 2434.71 618.193C2439.42 611.909 2439.36 608.999 2439.23 602.877C2439.21 601.924 2439.19 600.892 2439.19 599.758L2438.75 575.999C2423.12 579.688 2397.77 585.373 2394.02 561.551C2390.79 541.061 2392.36 507.231 2394.52 486.25C2400.53 486.18 2406.74 486.021 2412.97 485.861C2422.02 485.629 2431.12 485.396 2439.72 485.433C2439.26 470.666 2439.1 455.891 2439.24 441.121C2424.31 441.184 2409.36 441.559 2394.44 442.243L2394.63 393.148Z"/><path fill="#EEA0AF" transform="scale(0.287069 0.287109)" d="M2583.24 439.371C2582.36 439.055 2579.27 437.849 2578.49 437.765C2548.31 442.65 2539.24 450.375 2525.13 477.665C2525.75 465.43 2526.25 453.191 2526.62 440.945C2508.82 441.482 2491 441.556 2473.2 441.166C2473.2 457.842 2473.08 474.911 2472.96 492.114C2472.71 529.152 2472.45 566.806 2473.28 602.479L2473.42 624.442C2490.91 623.257 2508.92 623.313 2526.49 623.11C2526.47 613.951 2526.02 604.595 2525.57 595.304C2523.17 545.505 2520.87 497.574 2585.61 491.938C2585.66 490.243 2585.76 488.138 2585.86 485.751C2586.51 471.445 2587.61 446.968 2583.24 439.371Z"/><path fill="#EEA0AF" transform="scale(0.287069 0.287109)" d="M1216.48 441.594C1198.49 441.296 1180.49 441.128 1162.5 441.096L1163.18 623.611C1168.42 623.615 1173.91 623.571 1179.47 623.526C1191.24 623.432 1203.37 623.335 1214.32 623.678C1219.42 615.011 1217.9 531.794 1216.95 479.991C1216.62 461.766 1216.36 447.429 1216.48 441.594Z"/><path fill="#E11D48" transform="scale(0.287069 0.287109)" d="M348.856 963.339C362.447 952.784 361.455 935.103 359.763 919.68C352.083 912.08 345.412 905.838 337.289 898.702C336.895 898.621 336.498 898.538 336.098 898.455C323.76 895.897 308.3 892.693 298.144 901.157C257.307 935.194 301.156 1000.39 348.856 963.339Z"/><path fill="#E11D48" transform="scale(0.287069 0.287109)" d="M579.693 46.4383C546.509 48.1707 545.463 77.6103 547.376 102.19C553.665 108.572 559.789 115.109 565.738 121.799C568.728 120.708 575.817 121.975 582.524 123.174C585.84 123.767 589.063 124.343 591.65 124.609C621.455 112.016 637.572 83.9049 611.601 58.5088C603.196 50.2082 591.593 45.8211 579.693 46.4383Z"/><path fill="#EEA0AF" transform="scale(0.287069 0.287109)" d="M1216.89 374.053L1162.95 373.404C1162.55 389.416 1162.04 405.421 1161.41 421.423L1216.8 421.472L1216.89 374.053Z"/></svg>